<svg xmlns="http://www.w3.org/2000/svg" viewBox="0 0 128 128" role="img" aria-label="Favicon Dofepro-Tech">
  <defs>
    <linearGradient id="g" x1="0" x2="1" y1="0" y2="1">
      <stop offset="0%" stop-color="#ffb0bc" />
      <stop offset="50%" stop-color="#ff4d6d" />
      <stop offset="100%" stop-color="#b5163d" />
    </linearGradient>
    <linearGradient id="m" x1="0" x2="1" y1="0" y2="1">
      <stop offset="0%" stop-color="#ffffff" />
      <stop offset="100%" stop-color="#9fb5d9" />
    </linearGradient>
  </defs>
  <rect width="128" height="128" rx="30" fill="#071120"/>
  <circle cx="64" cy="64" r="48" fill="none" stroke="url(#g)" stroke-width="6"/>
  <path d="M30 57c16-18 43-24 69-8-7-1-13 1-18 5H44c-5 0-10 1-14 3z" fill="url(#g)"/>
  <path d="M86 41c-2 12-10 21-23 25 14 3 24-3 33-18-2-3-5-5-10-7z" fill="url(#m)"/>
  <path d="M31 73c11 22 36 31 62 21-15 2-27-1-38-9-8-6-15-9-24-12z" fill="url(#g)"/>
  <rect x="41" y="54" width="31" height="10" rx="2" fill="url(#g)"/>
  <path d="M51 64h8v18h-8z" fill="url(#m)"/>
  <path d="M63 64h8v18h-8z" fill="url(#m)"/>
</svg>
