<svg xmlns="http://www.w3.org/2000/svg" viewBox="0 0 640 640" role="img" aria-label="Logo Dofepro-Tech">
  <defs>
    <linearGradient id="ringA" x1="0" x2="1" y1="0" y2="1">
      <stop offset="0%" stop-color="#ffb0bc" />
      <stop offset="45%" stop-color="#ff4d6d" />
      <stop offset="100%" stop-color="#b5163d" />
    </linearGradient>
    <linearGradient id="ringB" x1="0" x2="1" y1="1" y2="0">
      <stop offset="0%" stop-color="#6a1024" />
      <stop offset="55%" stop-color="#ff6f91" />
      <stop offset="100%" stop-color="#ffc2cf" />
    </linearGradient>
    <linearGradient id="metal" x1="0" x2="1" y1="0" y2="1">
      <stop offset="0%" stop-color="#ffffff" />
      <stop offset="45%" stop-color="#bcd0eb" />
      <stop offset="100%" stop-color="#6e84ab" />
    </linearGradient>
    <filter id="glow" x="-20%" y="-20%" width="140%" height="140%">
      <feDropShadow dx="0" dy="0" stdDeviation="10" flood-color="#ff6f91" flood-opacity="0.35"/>
    </filter>
  </defs>
  <rect width="640" height="640" rx="140" fill="transparent" />
  <circle cx="320" cy="320" r="250" fill="none" stroke="url(#ringA)" stroke-width="18" filter="url(#glow)"/>
  <circle cx="320" cy="320" r="225" fill="none" stroke="url(#ringB)" stroke-width="8" opacity="0.95"/>
  <path d="M168 284c74-78 195-101 307-40-30-4-58 3-81 21H233c-24 0-47 7-65 19z" fill="url(#ringA)" opacity="0.95"/>
  <path d="M458 210c-6 61-47 101-101 121 62 11 111-19 143-87-8-14-22-26-42-34z" fill="url(#metal)" opacity="0.98"/>
  <path d="M171 346c46 94 161 128 277 88-69 6-117-6-159-39-38-29-73-40-118-49z" fill="url(#ringB)" opacity="0.96"/>
  <rect x="204" y="266" width="154" height="44" rx="8" fill="url(#ringA)" stroke="#ffb0bc" stroke-width="2"/>
  <path d="M257 312h41v95h-41z" fill="url(#metal)"/>
  <path d="M313 312h41v95h-41z" fill="url(#metal)"/>
  <g fill="none" stroke="url(#ringA)" stroke-width="5" stroke-linecap="round">
    <path d="M124 274h54"/>
    <path d="M132 296h66"/>
    <path d="M465 365h54"/>
    <path d="M473 387h66"/>
    <path d="M210 468h209"/>
  </g>
  <g fill="#ff8fa3">
    <circle cx="121" cy="274" r="9"/>
    <circle cx="132" cy="296" r="9"/>
    <circle cx="519" cy="365" r="9"/>
    <circle cx="539" cy="387" r="9"/>
    <circle cx="235" cy="468" r="8"/>
    <circle cx="392" cy="468" r="8"/>
  </g>
  <text x="320" y="525" text-anchor="middle" font-family="Space Grotesk, Arial, sans-serif" font-weight="700" font-size="54" fill="#ff5e7d">Dofepro-Tech</text>
</svg>
